<?xml version="1.0" standalone="no"?>
<!DOCTYPE svg PUBLIC "-//W3C//DTD SVG 20010904//EN"
 "http://www.w3.org/TR/2001/REC-SVG-20010904/DTD/svg10.dtd">
<svg version="1.0" xmlns="http://www.w3.org/2000/svg"
 width="500.000000pt" height="500.000000pt" viewBox="0 0 500.000000 500.000000"
 preserveAspectRatio="xMidYMid meet">

<g transform="translate(0.000000,500.000000) scale(0.100000,-0.100000)"
fill="#000000" stroke="none">
<path d="M2540 4975 c-246 -22 -428 -63 -630 -142 -582 -229 -1026 -658 -1335
-1288 -89 -183 -136 -306 -180 -479 -56 -217 -69 -336 -69 -631 0 -348 22
-515 99 -755 158 -489 369 -791 787 -1125 239 -191 417 -300 616 -380 59 -24
145 -59 192 -78 107 -45 225 -64 466 -77 557 -29 997 89 1454 389 147 96 278
209 508 435 214 211 223 222 220 255 -2 26 -10 39 -29 50 -25 14 -40 12 -175
-17 -292 -63 -324 -66 -559 -66 -237 0 -312 9 -540 64 -502 120 -975 361
-1194 610 -124 141 -327 461 -382 604 -42 109 -65 226 -80 408 -22 284 -1 534
72 863 74 329 155 540 275 717 135 198 268 327 494 478 69 46 213 160 208 165
-13 11 -95 11 -218 0z"/>
<path d="M2960 4366 c-51 -109 -62 -125 -87 -130 -15 -3 -77 -13 -138 -22 -60
-9 -112 -18 -114 -20 -2 -2 41 -48 97 -101 l101 -98 -23 -135 c-13 -74 -22
-137 -20 -139 2 -3 59 24 127 59 l122 64 123 -64 c67 -35 124 -61 127 -59 2 3
-7 65 -20 139 l-25 135 103 97 c56 53 100 99 97 101 -3 3 -65 14 -139 25 -73
12 -134 22 -136 24 -1 2 -30 58 -64 126 -34 67 -64 122 -67 122 -3 0 -32 -56
-64 -124z"/>
<path d="M4079 3978 c-52 -105 -68 -128 -89 -132 -14 -3 -76 -13 -137 -22 -62
-9 -113 -20 -113 -25 0 -4 43 -47 95 -95 74 -68 95 -93 95 -113 0 -15 -9 -78
-21 -140 -11 -62 -18 -115 -16 -118 3 -2 61 24 129 58 l125 62 116 -61 c63
-34 120 -62 125 -62 5 0 -2 62 -15 138 l-23 137 100 99 c55 55 99 100 98 102
-2 1 -55 10 -118 19 -63 9 -125 19 -138 22 -18 4 -38 35 -86 132 l-64 126 -63
-127z"/>
<path d="M4080 2890 c-34 -69 -63 -126 -64 -126 0 -1 -61 -11 -135 -22 -73
-12 -136 -23 -138 -26 -3 -3 39 -48 94 -100 l99 -95 -23 -136 c-13 -76 -22
-139 -19 -142 2 -3 59 24 126 60 l122 65 123 -64 c67 -35 124 -64 127 -64 3 0
-6 62 -18 138 l-24 137 103 103 c56 56 99 102 96 102 -4 0 -64 9 -135 20 -71
11 -132 20 -136 20 -5 0 -37 57 -72 127 l-63 128 -63 -125z"/>
</g>
</svg>
