<?xml version="1.0" standalone="no"?>
<!DOCTYPE svg PUBLIC "-//W3C//DTD SVG 20010904//EN"
 "http://www.w3.org/TR/2001/REC-SVG-20010904/DTD/svg10.dtd">
<svg version="1.0" xmlns="http://www.w3.org/2000/svg"
 width="500.000000pt" height="500.000000pt" viewBox="0 0 500.000000 500.000000"
 preserveAspectRatio="xMidYMid meet">

<g transform="translate(0.000000,500.000000) scale(0.100000,-0.100000)"
fill="#F7F7F7" stroke="none">
<path d="M2413 4965 c-17 -7 -36 -22 -42 -33 -37 -70 -11 -617 40 -837 7 -27
20 -69 30 -93 15 -35 23 -43 41 -40 71 10 116 253 125 678 3 174 2 264 -6 283
-20 51 -118 73 -188 42z"/>
<path d="M3583 4653 c-69 -76 -287 -504 -348 -686 -45 -133 -45 -190 -2 -195
37 -5 124 80 230 223 158 214 337 515 337 567 0 31 -35 70 -88 97 -57 29 -97
27 -129 -6z"/>
<path d="M1303 4660 c-48 -11 -95 -42 -117 -79 -24 -42 -17 -64 63 -206 122
-219 302 -466 414 -572 118 -112 143 -39 62 187 -54 151 -279 583 -337 647
-24 26 -44 31 -85 23z"/>
<path d="M4427 3780 c-269 -139 -654 -428 -673 -506 -20 -81 123 -55 397 71
234 108 487 254 509 294 29 55 -52 191 -114 191 -12 0 -66 -23 -119 -50z"/>
<path d="M381 3771 c-64 -59 -79 -145 -34 -187 93 -86 507 -294 715 -359 207
-64 223 4 38 163 -117 100 -433 308 -582 383 -72 36 -98 36 -137 0z"/>
<path d="M2388 3660 c-291 -22 -546 -136 -744 -334 -315 -315 -415 -786 -260
-1221 58 -161 152 -302 289 -431 237 -223 527 -334 878 -335 565 -1 1012 385
1116 965 21 119 21 341 -1 465 -50 284 -196 520 -423 684 -142 103 -395 190
-589 202 -54 3 -115 7 -134 9 -19 1 -79 0 -132 -4z"/>
<path d="M4555 2643 c-228 -10 -471 -47 -552 -83 -35 -15 -43 -24 -43 -45 0
-43 81 -72 290 -101 125 -18 610 -30 660 -17 48 12 72 60 67 131 -5 74 -31
105 -93 114 -48 6 -211 7 -329 1z"/>
<path d="M57 2588 c-44 -44 -48 -145 -9 -198 16 -22 30 -26 98 -33 94 -9 446
8 590 28 274 38 370 91 262 144 -99 47 -289 71 -635 78 l-281 6 -25 -25z"/>
<path d="M3773 1790 c-49 -51 187 -255 544 -469 133 -79 218 -121 246 -121 51
0 117 88 117 157 0 37 -40 73 -155 142 -306 183 -706 338 -752 291z"/>
<path d="M1147 1769 c-181 -43 -679 -288 -785 -386 -30 -28 -33 -36 -27 -65
12 -57 48 -112 87 -133 l37 -20 105 54 c265 134 634 409 678 507 11 23 10 28
-7 40 -21 16 -33 16 -88 3z"/>
<path d="M3229 1226 c-31 -67 119 -430 310 -753 71 -118 99 -145 144 -136 51
9 110 45 130 81 18 31 19 35 3 76 -35 92 -208 371 -329 531 -105 138 -196 225
-237 225 -6 0 -15 -11 -21 -24z"/>
<path d="M1745 1226 c-39 -17 -111 -89 -184 -185 -145 -190 -348 -522 -358
-586 -7 -44 23 -86 80 -114 57 -28 98 -27 124 2 64 69 229 373 309 567 101
249 111 350 29 316z"/>
<path d="M2470 996 c-29 -63 -48 -168 -65 -344 -17 -176 -20 -537 -5 -577 25
-66 195 -73 228 -8 40 78 1 726 -53 884 -25 72 -37 89 -62 89 -19 0 -28 -10
-43 -44z"/>
</g>
</svg>
